<?xml version="1.0" encoding="iso-8859-1"?>
<!-- Generator: Adobe Illustrator 16.0.0, SVG Export Plug-In . SVG Version: 6.00 Build 0)  -->
<!DOCTYPE svg PUBLIC "-//W3C//DTD SVG 1.1//EN" "http://www.w3.org/Graphics/SVG/1.1/DTD/svg11.dtd">
<svg version="1.1" id="Capa_1" xmlns="http://www.w3.org/2000/svg" xmlns:xlink="http://www.w3.org/1999/xlink" x="0px" y="0px"
	 width="45.751px" height="45.75px" viewBox="0 0 45.751 45.75" style="enable-background:new 0 0 45.751 45.75;"
	 xml:space="preserve">
<g>
	<g>
		<path d="M36.682,10.411c0.799-0.228,1.35-0.947,1.35-1.779c0-1.019-0.826-1.833-1.846-1.833h-7.91
			c0.75,1.546,1.531,3.388,2.287,5.369L36.682,10.411z"/>
		<path d="M9.051,10.41l6.119,1.76c0.756-1.981,1.537-3.826,2.286-5.372h-7.91c-1.019,0-1.845,0.811-1.845,1.83
			C7.702,9.459,8.253,10.182,9.051,10.41z"/>
		<path d="M45.425,20.943c-0.213-0.209-0.498-0.326-0.795-0.323l-13.258,0.089C29.548,14.62,26.762,7.35,24.88,4.781
			c-0.47-0.642-1.219-1.021-2.014-1.021c-0.795,0-1.544,0.379-2.013,1.021c-1.883,2.569-4.67,9.841-6.494,15.931l-13.26-0.094
			c-0.298-0.002-0.57,0.115-0.782,0.324C0.105,21.152,0,21.437,0,21.734v0.678c0,1.098,0.601,2.104,1.578,2.606l11.062,5.684
			c0.738,5.37,5.035,11.289,10.23,11.289c5.204,0,9.506-5.938,10.233-11.312l11.09-5.652c0.961-0.507,1.558-1.505,1.558-2.591
			v-0.697C45.751,21.439,45.637,21.153,45.425,20.943z M28.124,31.221c-0.245,0.371-0.659,0.578-1.104,0.578h-8.298
			c-0.444,0-0.859-0.207-1.104-0.579c-0.244-0.371-0.286-0.833-0.111-1.241l1.175-2.734c0.208-0.486,0.686-0.793,1.215-0.793h5.95
			c0.528,0,1.008,0.312,1.215,0.797l1.176,2.732C28.411,30.39,28.369,30.85,28.124,31.221z"/>
	</g>
</g>
<g>
</g>
<g>
</g>
<g>
</g>
<g>
</g>
<g>
</g>
<g>
</g>
<g>
</g>
<g>
</g>
<g>
</g>
<g>
</g>
<g>
</g>
<g>
</g>
<g>
</g>
<g>
</g>
<g>
</g>
</svg>
