<?xml version="1.0" encoding="iso-8859-1"?>
<!-- Generator: Adobe Illustrator 16.0.0, SVG Export Plug-In . SVG Version: 6.00 Build 0)  -->
<!DOCTYPE svg PUBLIC "-//W3C//DTD SVG 1.1//EN" "http://www.w3.org/Graphics/SVG/1.1/DTD/svg11.dtd">
<svg version="1.1" id="Capa_1" xmlns="http://www.w3.org/2000/svg" xmlns:xlink="http://www.w3.org/1999/xlink" x="0px" y="0px"
	 width="589.05px" height="589.05px" viewBox="0 0 589.05 589.05" style="enable-background:new 0 0 589.05 589.05;"
	 xml:space="preserve">
<g>
	<g id="Layer_1_58_">
		<path d="M459,239.052c-2.55,0-5.101,0-7.65,0l-8.925-49.725v-56.1c0-21.675-17.85-40.8-40.8-40.8h-10.2
			c-10.2,0-19.125,8.925-19.125,19.125c0,10.2,8.925,19.125,19.125,19.125h10.2c1.274,0,2.55,1.275,2.55,2.55v48.45h-209.1
			l6.375-25.5h56.1c14.025,0,25.5-11.475,25.5-25.5s-11.475-25.5-25.5-25.5H117.3c-14.025,0-25.5,11.475-25.5,25.5
			s11.475,25.5,25.5,25.5h43.35l-19.125,84.15c-3.825,0-8.925,0-12.75,0C57.375,239.052,0,297.702,0,367.827
			s57.375,128.775,128.775,128.775c71.4,1.273,128.775-57.375,128.775-128.775c0-53.551-33.15-99.451-79.05-119.851l7.65-29.325
			h223.125l0,0l5.101,26.775c-49.726,17.85-84.15,65.025-84.15,121.125c0,71.4,57.375,128.775,128.775,128.775
			c71.399,2.549,130.05-56.1,130.05-127.5S530.399,239.052,459,239.052z M220.575,367.827c0,49.725-40.8,90.525-90.525,90.525
			s-91.8-39.525-91.8-90.525s40.8-90.525,90.525-90.525c1.275,0,2.55,0,2.55,0l-15.3,65.025c-10.2,5.1-16.575,15.299-16.575,26.775
			c0,16.574,12.75,29.324,29.325,29.324c16.575,0,29.325-12.75,29.325-29.324c0-6.375-2.55-12.75-5.1-16.576l16.575-65.025
			C198.9,301.526,220.575,332.126,220.575,367.827z M459,459.626c-49.726,0-90.525-40.799-90.525-90.523
			c0-36.977,21.675-68.852,53.55-82.876l12.75,67.575c-2.55,5.1-3.824,10.199-3.824,15.301c0,16.574,12.75,29.324,29.324,29.324
			c16.575,0,29.325-12.75,29.325-29.324c0-12.75-7.649-22.951-17.85-26.775l-11.476-63.75l0,0c49.726,0,90.525,40.799,90.525,90.526
			C550.8,418.827,510,459.626,459,459.626z"/>
	</g>
</g>
<g>
</g>
<g>
</g>
<g>
</g>
<g>
</g>
<g>
</g>
<g>
</g>
<g>
</g>
<g>
</g>
<g>
</g>
<g>
</g>
<g>
</g>
<g>
</g>
<g>
</g>
<g>
</g>
<g>
</g>
</svg>
