<?xml version="1.0" encoding="iso-8859-1"?>
<!-- Generator: Adobe Illustrator 16.0.0, SVG Export Plug-In . SVG Version: 6.00 Build 0)  -->
<!DOCTYPE svg PUBLIC "-//W3C//DTD SVG 1.1//EN" "http://www.w3.org/Graphics/SVG/1.1/DTD/svg11.dtd">
<svg version="1.1" id="Capa_1" xmlns="http://www.w3.org/2000/svg" xmlns:xlink="http://www.w3.org/1999/xlink" x="0px" y="0px"
	 width="45.948px" height="45.947px" viewBox="0 0 45.948 45.947" style="enable-background:new 0 0 45.948 45.947;"
	 xml:space="preserve">
<g>
	<path d="M44.468,24.521c-0.222-0.375-0.581-0.644-1.003-0.748l-4.303-1.052l-3.208-11.007c-1.106-3.795-4.521-6.484-8.473-6.657
		V2.72c0-1.494-1.237-2.72-2.729-2.72h-3.559c-1.492,0-2.729,1.226-2.729,2.72v2.336c-3.95,0.173-7.365,2.862-8.474,6.657
		L6.79,22.72l-4.306,1.052C2.062,23.877,1.7,24.146,1.48,24.521c-0.223,0.372-0.281,0.821-0.167,1.239l3.239,11.9
		c0.833,3.062,3.32,5.395,6.43,6.028l10.242,2.089c0.577,0.119,1.164,0.17,1.749,0.17c0.587,0,1.174-0.051,1.75-0.168l10.242-2.089
		c3.108-0.636,5.597-2.966,6.431-6.028l3.238-11.9C44.749,25.342,44.69,24.893,44.468,24.521z M13.868,12.856
		c0.647-2.218,2.714-3.753,5.025-3.753h8.16c2.312,0,4.378,1.535,5.024,3.753l0.562,1.917l-8.492-2.589
		c-0.384-0.117-0.779-0.183-1.175-0.183c-0.394,0-0.789,0.064-1.173,0.18l-8.492,2.591L13.868,12.856z M14.349,36.659
		c-1.773,0-3.211-2.177-3.211-4.862c0-2.687,1.438-4.865,3.211-4.865c1.774,0,3.213,2.179,3.213,4.865
		C17.562,34.482,16.124,36.659,14.349,36.659z M22.973,19.005c-0.654,0-1.309,0.083-1.95,0.239l-9.715,2.374l0.988-3.388
		l10.38-3.161c0.098-0.03,0.197-0.051,0.297-0.051c0.101,0,0.201,0.021,0.299,0.051l10.379,3.161l0.987,3.388l-9.715-2.374
		C24.283,19.088,23.628,19.005,22.973,19.005z M31.599,36.659c-1.774,0-3.213-2.177-3.213-4.862c0-2.687,1.438-4.865,3.213-4.865
		c1.772,0,3.211,2.179,3.211,4.865C34.81,34.482,33.372,36.659,31.599,36.659z"/>
</g>
<g>
</g>
<g>
</g>
<g>
</g>
<g>
</g>
<g>
</g>
<g>
</g>
<g>
</g>
<g>
</g>
<g>
</g>
<g>
</g>
<g>
</g>
<g>
</g>
<g>
</g>
<g>
</g>
<g>
</g>
</svg>
