<?xml version="1.0" encoding="iso-8859-1"?>
<!-- Generator: Adobe Illustrator 16.0.0, SVG Export Plug-In . SVG Version: 6.00 Build 0)  -->
<!DOCTYPE svg PUBLIC "-//W3C//DTD SVG 1.1//EN" "http://www.w3.org/Graphics/SVG/1.1/DTD/svg11.dtd">
<svg version="1.1" id="Capa_1" xmlns="http://www.w3.org/2000/svg" xmlns:xlink="http://www.w3.org/1999/xlink" x="0px" y="0px"
	 width="46.41px" height="46.409px" viewBox="0 0 46.41 46.409" style="enable-background:new 0 0 46.41 46.409;"
	 xml:space="preserve">
<g>
	<g>
		<path d="M37.875,21.259H25.942c-3.641,0-6.558,2.982-6.558,6.626v15.572c0,1.632,1.287,2.952,2.917,2.952h19.215
			c1.63,0,2.938-1.32,2.938-2.952V27.885C44.456,24.242,41.517,21.259,37.875,21.259z M39.926,32.309
			c0,1.146-0.929,2.071-2.073,2.071H25.909c-1.146,0-2.074-0.927-2.074-2.071v-4.604c0-1.144,0.929-2.072,2.074-2.072h11.943
			c1.145,0,2.072,0.93,2.072,2.072v4.604H39.926z"/>
		<path d="M30.241,16.261h-6.872c-1.109,0-2.009,0.921-2.009,2.03c0,1.11,0.9,2.03,2.009,2.03H40.45c1.11,0,2.009-0.92,2.009-2.03
			c0-1.109-0.898-2.03-2.009-2.03h-6.226V7.08l5.209-2.264c1.271-0.554,1.854-2.033,1.301-3.305
			c-0.552-1.272-2.03-1.854-3.304-1.303L3.466,14.966C2.194,15.521,1.611,17,2.163,18.272c0.412,0.946,1.335,1.513,2.306,1.513
			c0.334,0,0.674-0.066,1-0.209L30.241,8.81V16.261z"/>
	</g>
</g>
<g>
</g>
<g>
</g>
<g>
</g>
<g>
</g>
<g>
</g>
<g>
</g>
<g>
</g>
<g>
</g>
<g>
</g>
<g>
</g>
<g>
</g>
<g>
</g>
<g>
</g>
<g>
</g>
<g>
</g>
</svg>
