<?xml version="1.0" encoding="iso-8859-1"?>
<!-- Generator: Adobe Illustrator 16.0.0, SVG Export Plug-In . SVG Version: 6.00 Build 0)  -->
<!DOCTYPE svg PUBLIC "-//W3C//DTD SVG 1.1//EN" "http://www.w3.org/Graphics/SVG/1.1/DTD/svg11.dtd">
<svg version="1.1" id="Capa_1" xmlns="http://www.w3.org/2000/svg" xmlns:xlink="http://www.w3.org/1999/xlink" x="0px" y="0px"
	 width="45.686px" height="45.686px" viewBox="0 0 45.686 45.686" style="enable-background:new 0 0 45.686 45.686;"
	 xml:space="preserve">
<g>
	<path d="M22.843,0C10.227,0,0,10.226,0,22.843c0,12.614,10.227,22.842,22.843,22.842c12.616,0,22.843-10.229,22.843-22.842
		C45.686,10.226,35.459,0,22.843,0z M22.843,3.728c1.675,0,3.032,1.355,3.032,3.03c0,1.675-1.357,3.032-3.032,3.032
		s-3.032-1.357-3.032-3.032C19.811,5.083,21.168,3.728,22.843,3.728z M6.761,25.874c-1.674,0-3.031-1.356-3.033-3.031
		c0.002-1.675,1.359-3.033,3.033-3.033c1.675,0.001,3.031,1.358,3.031,3.033C9.792,24.518,8.436,25.874,6.761,25.874z
		 M22.843,41.955c-1.675,0-3.032-1.355-3.032-3.029c0-1.676,1.357-3.033,3.032-3.033s3.032,1.357,3.032,3.033
		C25.875,40.6,24.518,41.955,22.843,41.955z M33.689,13.232L26.732,25.67c-0.248,0.444-0.615,0.811-1.061,1.061l-12.439,6.955
		c-0.354,0.199-0.798,0.138-1.085-0.149c-0.288-0.287-0.349-0.731-0.151-1.087l6.959-12.437c0.248-0.444,0.616-0.812,1.061-1.058
		l12.437-6.958c0.354-0.199,0.798-0.138,1.085,0.15S33.887,12.879,33.689,13.232z M38.926,25.874c-1.675,0-3.031-1.356-3.031-3.031
		c0-1.675,1.355-3.033,3.031-3.033c1.674,0.001,3.032,1.358,3.032,3.033C41.956,24.518,40.6,25.874,38.926,25.874z"/>
	<circle cx="22.843" cy="22.843" r="3.032"/>
</g>
<g>
</g>
<g>
</g>
<g>
</g>
<g>
</g>
<g>
</g>
<g>
</g>
<g>
</g>
<g>
</g>
<g>
</g>
<g>
</g>
<g>
</g>
<g>
</g>
<g>
</g>
<g>
</g>
<g>
</g>
</svg>
