<?xml version="1.0" encoding="iso-8859-1"?>
<!-- Generator: Adobe Illustrator 16.0.0, SVG Export Plug-In . SVG Version: 6.00 Build 0)  -->
<!DOCTYPE svg PUBLIC "-//W3C//DTD SVG 1.1//EN" "http://www.w3.org/Graphics/SVG/1.1/DTD/svg11.dtd">
<svg version="1.1" id="Capa_1" xmlns="http://www.w3.org/2000/svg" xmlns:xlink="http://www.w3.org/1999/xlink" x="0px" y="0px"
	 width="586.5px" height="586.5px" viewBox="0 0 586.5 586.5" style="enable-background:new 0 0 586.5 586.5;" xml:space="preserve"
	>
<g>
	<g id="Layer_1_45_">
		<path d="M569.926,109.013H122.4c-8.925,0-15.3,6.375-15.3,15.3s6.375,15.3,15.3,15.3h207.825v40.8
			c-61.2,5.1-110.924,33.15-130.049,72.675l-81.6,7.65c-10.2-20.4-31.875-35.7-56.1-35.7C28.05,225.038,0,253.087,0,287.513
			c0,34.425,28.05,62.475,62.475,62.475c24.225,0,45.9-14.024,56.1-35.7l81.6,7.65c16.575,33.15,54.825,58.65,102,68.85l42.074,45.9
			H214.2c-11.475,0-20.4,8.925-20.4,20.4c0,11.475,8.925,20.399,20.4,20.399h243.524c42.076,0,76.5-34.425,76.5-76.5
			c0-11.475-8.924-20.399-20.4-20.399c-11.475,0-20.398,8.925-20.398,20.399c0,19.125-16.576,35.7-35.701,35.7H387.6l-38.25-40.8
			c85.426,0,154.275-48.45,154.275-108.375c0-56.1-62.475-103.275-141.525-107.1v-40.8h209.1c8.926,0,15.301-6.375,15.301-15.3
			S578.85,109.013,569.926,109.013z M63.75,319.388c-17.85,0-31.875-14.025-31.875-31.875c0-17.85,14.025-31.875,31.875-31.875
			c7.65,0,15.3,2.55,21.675,8.925h-7.65c-11.475,1.275-20.4,11.475-20.4,22.95c0,11.475,8.925,21.675,20.4,22.95l7.65,1.274
			C79.05,315.562,71.4,319.388,63.75,319.388z M478.125,283.688c0,2.55,0,5.1-1.275,6.375c-1.275,1.275-3.824,2.55-6.375,2.55h-102
			c-12.75,0-22.949-10.2-22.949-22.95v-61.2c0-2.55,1.275-3.825,2.549-6.375c1.275-1.275,3.826-2.55,6.375-2.55
			C419.475,203.362,471.75,239.062,478.125,283.688z"/>
	</g>
</g>
<g>
</g>
<g>
</g>
<g>
</g>
<g>
</g>
<g>
</g>
<g>
</g>
<g>
</g>
<g>
</g>
<g>
</g>
<g>
</g>
<g>
</g>
<g>
</g>
<g>
</g>
<g>
</g>
<g>
</g>
</svg>
