<?xml version="1.0" encoding="iso-8859-1"?>
<!-- Generator: Adobe Illustrator 16.0.0, SVG Export Plug-In . SVG Version: 6.00 Build 0)  -->
<!DOCTYPE svg PUBLIC "-//W3C//DTD SVG 1.1//EN" "http://www.w3.org/Graphics/SVG/1.1/DTD/svg11.dtd">
<svg version="1.1" id="Capa_1" xmlns="http://www.w3.org/2000/svg" xmlns:xlink="http://www.w3.org/1999/xlink" x="0px" y="0px"
	 width="46.021px" height="46.021px" viewBox="0 0 46.021 46.021" style="enable-background:new 0 0 46.021 46.021;"
	 xml:space="preserve">
<g>
	<path d="M36.125,26.003c2.205-3.414,4.086-7.059,4.086-10.674C40.211,6.863,31.477,0,23.012,0S5.811,6.863,5.811,15.329
		c0,3.615,1.895,7.257,4.097,10.674c2.101,3.257,7.635,12.408,7.635,12.408v3.916c0,2.049,1.628,3.694,3.676,3.694h3.592
		c2.049,0,3.684-1.646,3.684-3.694v-3.915C28.494,38.412,34.172,29.025,36.125,26.003z M19.83,38.316l-4.505-7.315
		c2.41,1.544,5.063,2.492,7.691,2.492s5.28-0.954,7.689-2.497l-4.504,7.32H19.83z"/>
</g>
<g>
</g>
<g>
</g>
<g>
</g>
<g>
</g>
<g>
</g>
<g>
</g>
<g>
</g>
<g>
</g>
<g>
</g>
<g>
</g>
<g>
</g>
<g>
</g>
<g>
</g>
<g>
</g>
<g>
</g>
</svg>
