<?xml version="1.0" encoding="iso-8859-1"?>
<!-- Generator: Adobe Illustrator 16.0.0, SVG Export Plug-In . SVG Version: 6.00 Build 0)  -->
<!DOCTYPE svg PUBLIC "-//W3C//DTD SVG 1.1//EN" "http://www.w3.org/Graphics/SVG/1.1/DTD/svg11.dtd">
<svg version="1.1" id="Capa_1" xmlns="http://www.w3.org/2000/svg" xmlns:xlink="http://www.w3.org/1999/xlink" x="0px" y="0px"
	 width="575.025px" height="575.025px" viewBox="0 0 575.025 575.025" style="enable-background:new 0 0 575.025 575.025;"
	 xml:space="preserve">
<g>
	<g id="Layer_1_143_">
		<g>
			<path d="M504.9,423.938c-31.875,0-59.926,21.675-67.576,52.274H425.85c-7.65-29.325-35.699-52.274-67.574-52.274
				s-59.926,21.675-67.576,52.274h-8.924c-7.65-29.325-35.7-52.274-67.575-52.274s-59.925,21.675-67.575,52.274H137.7
				c-7.65-29.325-35.7-52.274-67.575-52.274C30.6,423.938,0,455.813,0,494.063c0,39.524,31.875,70.125,70.125,70.125
				c31.875,0,59.925-21.676,67.575-52.275h8.925c7.65,29.325,35.7,52.275,67.575,52.275s59.925-21.676,67.575-52.275h8.924
				c7.65,29.325,35.701,52.275,67.576,52.275s59.924-21.676,67.574-52.275h11.475c7.65,29.325,35.701,52.275,67.576,52.275
				c39.525,0,70.125-31.875,70.125-70.125S544.426,423.938,504.9,423.938z M82.875,513.188H94.35
				c-6.375,8.925-16.575,14.024-26.775,14.024c-17.85,0-33.15-15.3-33.15-33.149c0-17.851,14.025-33.15,31.875-33.15
				c11.475,0,21.675,6.375,26.775,14.025h-10.2c-10.2,0-19.125,7.649-19.125,19.125C63.75,505.538,72.675,513.188,82.875,513.188z
				 M211.65,527.212c-11.475,0-21.675-6.375-26.775-14.024H239.7C233.325,522.113,223.125,527.212,211.65,527.212z M184.875,476.212
				c6.375-8.925,16.575-14.024,26.775-14.024c10.2,0,21.675,6.375,26.775,14.024H184.875z M357,527.212
				c-11.475,0-21.676-6.375-26.775-14.024h54.826C378.676,522.113,368.475,527.212,357,527.212z M330.225,476.212
				c6.375-8.925,16.576-14.024,26.775-14.024s21.676,6.375,26.775,14.024H330.225z M504.9,527.212
				c-11.475,0-21.676-6.375-26.775-14.024h5.1c10.201,0,19.125-7.65,19.125-19.125c0-11.476-8.924-19.125-19.125-19.125h-5.1
				c6.375-8.926,16.574-14.025,28.051-14.025c17.85,0,33.148,15.3,33.148,33.15C538.051,513.188,522.75,527.212,504.9,527.212z"/>
			<path d="M160.65,324.488c-17.85,0-34.425-6.375-48.45-16.575l-68.85-58.65v108.375c0,22.95,17.85,40.801,40.8,40.801h392.7
				c22.951,0,40.801-17.851,40.801-40.801v-16.574c0-68.851-48.451-127.5-116.025-140.25l-84.15-15.3
				c0,24.225-11.475,45.9-29.324,61.2l-79.05,61.2C196.35,318.113,178.5,324.488,160.65,324.488z"/>
			<path d="M279.225,51.638c0-22.95-17.85-40.8-40.8-40.8H82.875c-21.675,0-39.525,19.125-39.525,40.8v21.675H280.5L279.225,51.638
				L279.225,51.638z"/>
			<path d="M58.65,217.388l77.775,61.2c7.65,6.375,16.575,8.925,25.5,8.925c8.925,0,17.85-2.55,25.5-8.925l77.775-61.2
				c10.2-7.65,15.3-19.125,15.3-31.875v-73.95H43.35v73.95C43.35,196.988,48.45,209.738,58.65,217.388z"/>
		</g>
	</g>
</g>
<g>
</g>
<g>
</g>
<g>
</g>
<g>
</g>
<g>
</g>
<g>
</g>
<g>
</g>
<g>
</g>
<g>
</g>
<g>
</g>
<g>
</g>
<g>
</g>
<g>
</g>
<g>
</g>
<g>
</g>
</svg>
