<?xml version="1.0" encoding="iso-8859-1"?>
<!-- Generator: Adobe Illustrator 16.0.0, SVG Export Plug-In . SVG Version: 6.00 Build 0)  -->
<!DOCTYPE svg PUBLIC "-//W3C//DTD SVG 1.1//EN" "http://www.w3.org/Graphics/SVG/1.1/DTD/svg11.dtd">
<svg version="1.1" id="Capa_1" xmlns="http://www.w3.org/2000/svg" xmlns:xlink="http://www.w3.org/1999/xlink" x="0px" y="0px"
	 width="585.225px" height="585.224px" viewBox="0 0 585.225 585.224" style="enable-background:new 0 0 585.225 585.224;"
	 xml:space="preserve">
<g>
	<g id="Layer_1_104_">
		<g>
			<path d="M212.925,225.875H178.5L51,202.925c-19.125-3.825-36.975,11.475-36.975,30.6V296H242.25v-42.075
				C242.25,238.625,228.225,225.875,212.925,225.875z"/>
			<path d="M0,381.424L0,381.424c0,39.525,38.25,71.4,85.425,71.4H499.8c47.175,0,85.425-31.875,85.425-70.125v-1.275H0z"/>
			<path d="M249.9,200.375c3.825,0,7.65-1.275,10.2-3.825l25.5-24.225l14.025,14.025l-33.15,29.325
				C258.825,222.05,255,230.975,255,239.9v71.399H28.05v56.1H255h99.45H553.35v-25.5c0-63.749-66.3-116.024-144.074-116.024H408
				l-58.65-58.65c-7.649-7.65-21.675-8.925-30.6,0l0,0l-14.025-15.3c2.551-5.1,1.275-11.475-2.55-15.3
				c-3.825-3.825-10.2-5.1-16.575-2.55c-5.1-2.55-12.75-2.55-16.575,2.55c-3.825,3.825-5.1,10.2-2.55,16.575l-25.5,25.5
				c-5.1,5.1-6.375,14.025,0,20.4C243.525,199.1,247.35,200.375,249.9,200.375z"/>
		</g>
	</g>
</g>
<g>
</g>
<g>
</g>
<g>
</g>
<g>
</g>
<g>
</g>
<g>
</g>
<g>
</g>
<g>
</g>
<g>
</g>
<g>
</g>
<g>
</g>
<g>
</g>
<g>
</g>
<g>
</g>
<g>
</g>
</svg>
