<?xml version="1.0" encoding="iso-8859-1"?>
<!-- Generator: Adobe Illustrator 16.0.0, SVG Export Plug-In . SVG Version: 6.00 Build 0)  -->
<!DOCTYPE svg PUBLIC "-//W3C//DTD SVG 1.1//EN" "http://www.w3.org/Graphics/SVG/1.1/DTD/svg11.dtd">
<svg version="1.1" id="Capa_1" xmlns="http://www.w3.org/2000/svg" xmlns:xlink="http://www.w3.org/1999/xlink" x="0px" y="0px"
	 width="590.006px" height="590.006px" viewBox="0 0 590.006 590.006" style="enable-background:new 0 0 590.006 590.006;"
	 xml:space="preserve">
<g>
	<g id="Layer_1_91_">
		<g>
			<path d="M549.206,52.116H124.631c-17.85,0-33.15,12.75-38.25,30.6l-85.425,351.9c-2.55,11.475,0,24.225,7.65,33.149
				c7.65,8.926,19.125,15.301,30.6,15.301h24.225c1.275-49.726,42.075-89.25,91.8-89.25s90.525,39.524,91.8,89.25h99.449
				c1.275-49.726,42.075-89.25,91.801-89.25c49.725,0,90.524,39.524,91.8,89.25h20.399c21.676,0,39.525-17.851,39.525-39.525v-351.9
				C588.73,69.965,570.881,52.116,549.206,52.116z M118.256,282.891c-6.375,0-12.75-2.55-16.575-7.65
				c-3.825-5.1-5.1-11.475-3.825-17.85l30.6-136.425c2.55-10.2,11.475-16.575,20.4-16.575h49.725v179.775
				C197.306,282.891,118.256,282.891,118.256,282.891z M235.556,282.891V103.116h128.775v179.775H235.556z M537.73,261.215
				c0,11.475-8.925,21.675-21.675,21.675H402.581V103.116h113.475c11.476,0,21.675,10.2,21.675,21.675V261.215L537.73,261.215z"/>
			<circle cx="155.231" cy="484.34" r="53.55"/>
			<circle cx="437.006" cy="484.34" r="53.55"/>
		</g>
	</g>
</g>
<g>
</g>
<g>
</g>
<g>
</g>
<g>
</g>
<g>
</g>
<g>
</g>
<g>
</g>
<g>
</g>
<g>
</g>
<g>
</g>
<g>
</g>
<g>
</g>
<g>
</g>
<g>
</g>
<g>
</g>
</svg>
