<?xml version="1.0" encoding="iso-8859-1"?>
<!-- Generator: Adobe Illustrator 16.0.0, SVG Export Plug-In . SVG Version: 6.00 Build 0)  -->
<!DOCTYPE svg PUBLIC "-//W3C//DTD SVG 1.1//EN" "http://www.w3.org/Graphics/SVG/1.1/DTD/svg11.dtd">
<svg version="1.1" id="Capa_1" xmlns="http://www.w3.org/2000/svg" xmlns:xlink="http://www.w3.org/1999/xlink" x="0px" y="0px"
	 width="46.225px" height="46.225px" viewBox="0 0 46.225 46.225" style="enable-background:new 0 0 46.225 46.225;"
	 xml:space="preserve">
<g>
	<path d="M37.899,33.812c2.184-3.01,3.475-6.707,3.475-10.701s-1.291-7.693-3.475-10.702l1.555-1.556
		c1.129-1.127,1.129-2.957,0-4.085c-1.127-1.127-2.942-1.127-4.069,0l-1.56,1.563c-2.264-1.646-4.916-2.783-7.793-3.248V2.889
		C26.032,1.293,24.761,0,23.165,0c-1.595,0-2.867,1.293-2.867,2.889v2.179c-2.902,0.45-5.58,1.587-7.862,3.238l-1.543-1.537
		c-1.128-1.127-2.976-1.127-4.104,0C5.661,7.897,5.65,9.727,6.78,10.854l1.549,1.55c-2.186,3.012-3.478,6.712-3.478,10.708
		s1.291,7.695,3.476,10.703l-1.554,1.555c-1.129,1.127-1.129,2.957-0.001,4.085c0.564,0.563,1.303,0.847,2.042,0.847
		c0.74,0,1.516-0.281,2.08-0.847l1.542-1.536c2.283,1.65,4.96,2.787,7.862,3.238v2.179c0,1.597,1.272,2.89,2.867,2.89
		c1.596,0,2.868-1.293,2.868-2.89v-2.194c2.877-0.466,5.529-1.604,7.793-3.248l1.56,1.562c0.563,0.564,1.295,0.847,2.034,0.847
		c0.74,0,1.476-0.282,2.039-0.847c1.127-1.128,1.127-2.958-0.002-4.085L37.899,33.812z M35.596,23.111
		c0,2.396-0.681,4.638-1.856,6.542l-3.515-3.514c0.397-0.932,0.618-1.953,0.618-3.028c0-1.073-0.221-2.097-0.618-3.026l3.515-3.515
		C34.915,18.473,35.596,20.714,35.596,23.111z M26.989,23.111c0,2.142-1.736,3.879-3.877,3.879c-2.142,0-3.878-1.737-3.878-3.879
		c0-2.143,1.736-3.878,3.878-3.878C25.253,19.233,26.989,20.969,26.989,23.111z M29.669,12.495l-3.508,3.515
		c-0.043-0.019-0.086-0.037-0.129-0.054v-4.979C27.335,11.29,28.56,11.806,29.669,12.495z M20.298,10.952v4.962
		c-0.054,0.022-0.108,0.042-0.161,0.064l-3.53-3.518C17.732,11.772,18.976,11.258,20.298,10.952z M10.628,23.111
		c0-2.398,0.682-4.641,1.859-6.546l3.514,3.515c-0.399,0.932-0.62,1.955-0.62,3.031c0,1.075,0.221,2.1,0.619,3.03l-3.515,3.515
		C11.31,27.751,10.628,25.51,10.628,23.111z M16.606,33.762l3.529-3.517c0.053,0.022,0.107,0.044,0.161,0.063v4.963
		C18.976,34.966,17.732,34.451,16.606,33.762z M26.032,35.246v-4.979c0.043-0.02,0.086-0.035,0.129-0.055l3.508,3.516
		C28.56,34.416,27.335,34.934,26.032,35.246z"/>
</g>
<g>
</g>
<g>
</g>
<g>
</g>
<g>
</g>
<g>
</g>
<g>
</g>
<g>
</g>
<g>
</g>
<g>
</g>
<g>
</g>
<g>
</g>
<g>
</g>
<g>
</g>
<g>
</g>
<g>
</g>
</svg>
