<?xml version="1.0" encoding="iso-8859-1"?>
<!-- Generator: Adobe Illustrator 16.0.0, SVG Export Plug-In . SVG Version: 6.00 Build 0)  -->
<!DOCTYPE svg PUBLIC "-//W3C//DTD SVG 1.1//EN" "http://www.w3.org/Graphics/SVG/1.1/DTD/svg11.dtd">
<svg version="1.1" id="Capa_1" xmlns="http://www.w3.org/2000/svg" xmlns:xlink="http://www.w3.org/1999/xlink" x="0px" y="0px"
	 width="580.125px" height="580.125px" viewBox="0 0 580.125 580.125" style="enable-background:new 0 0 580.125 580.125;"
	 xml:space="preserve">
<g>
	<g id="Layer_1_26_">
		<g>
			<path d="M442.304,414.375l-53.551-30.6l25.5-159.375c8.926-54.825,0-112.2-24.225-155.55S330.103,0,290.579,0
				c-38.25,0-75.226,25.5-99.45,68.85c-24.225,43.35-33.15,100.725-24.225,155.55l25.5,158.1l-53.55,30.601
				c-6.375,3.824-10.2,10.199-10.2,16.574v86.7c0,7.65,3.825,14.025,10.2,17.851c6.375,3.824,14.025,3.824,20.4,0l59.925-34.426
				h141.526l59.924,35.7c6.375,3.825,14.025,3.825,20.4,0s10.199-10.2,10.199-17.85v-86.7
				C452.503,424.575,448.679,418.2,442.304,414.375z M290.579,108.375c15.299,0,29.325,12.75,29.325,29.325
				s-12.75,29.325-29.325,29.325c-16.575,0-29.325-12.75-29.325-29.325S275.278,108.375,290.579,108.375z M290.579,306
				c-24.226,0-44.625-20.4-44.625-44.625c0-24.225,20.4-44.625,44.625-44.625c24.225,0,44.625,20.4,44.625,44.625
				C335.204,285.6,314.804,306,290.579,306z"/>
			<path d="M226.828,553.351c0,15.3,11.475,26.774,26.775,26.774h73.951c15.299,0,26.775-12.75,26.775-26.774v-24.226H226.828
				V553.351z"/>
		</g>
	</g>
</g>
<g>
</g>
<g>
</g>
<g>
</g>
<g>
</g>
<g>
</g>
<g>
</g>
<g>
</g>
<g>
</g>
<g>
</g>
<g>
</g>
<g>
</g>
<g>
</g>
<g>
</g>
<g>
</g>
<g>
</g>
</svg>
