<?xml version="1.0" encoding="iso-8859-1"?>
<!-- Generator: Adobe Illustrator 16.0.0, SVG Export Plug-In . SVG Version: 6.00 Build 0)  -->
<!DOCTYPE svg PUBLIC "-//W3C//DTD SVG 1.1//EN" "http://www.w3.org/Graphics/SVG/1.1/DTD/svg11.dtd">
<svg version="1.1" id="Capa_1" xmlns="http://www.w3.org/2000/svg" xmlns:xlink="http://www.w3.org/1999/xlink" x="0px" y="0px"
	 width="45.037px" height="45.037px" viewBox="0 0 45.037 45.037" style="enable-background:new 0 0 45.037 45.037;"
	 xml:space="preserve">
<g>
	<g>
		<path d="M6.866,42.4c-0.387,0.996,0.107,2.117,1.102,2.504c0.23,0.09,0.467,0.133,0.7,0.133c0.774,0,1.506-0.471,1.803-1.234
			l1.947-5.011l-3.784-0.94L6.866,42.4z"/>
		<path d="M13.614,6.204c0-0.405,0.294-0.769,0.684-0.882l6.554-1.903v4.579l0.808-0.231c0.57-0.16,1.179-0.161,1.75-0.002
			l0.842,0.233V3.419l6.555,1.903c0.39,0.113,0.683,0.477,0.683,0.882v3.805l2.853,0.811V6.204c0-1.688-1.14-3.195-2.76-3.668
			l-8.199-2.391C23.122,0.069,22.745,0,22.531,0c-0.232,0-0.594,0.068-0.854,0.145L13.49,2.536c-1.621,0.473-2.728,1.98-2.728,3.668
			v4.615l2.851-0.811L13.614,6.204L13.614,6.204z"/>
		<path d="M9.376,30.704l13.157,2.176l13.168-2.176c0.975-0.161,1.709-1.005,1.709-1.991V15.47c0-1.063-0.729-1.996-1.753-2.281
			L23.46,9.786c-0.607-0.169-1.25-0.169-1.857,0l-12.18,3.403c-1.024,0.285-1.73,1.219-1.73,2.281v13.242
			C7.693,29.699,8.403,30.543,9.376,30.704z M22.519,13.963c4.057,0,7.345,3.288,7.345,7.344c0,4.058-3.288,7.345-7.345,7.345
			c-4.056,0-7.344-3.287-7.344-7.345C15.174,17.252,18.462,13.963,22.519,13.963z"/>
		<path d="M38.172,42.4l-1.769-4.551l-3.785,0.941l1.947,5.011c0.297,0.765,1.028,1.233,1.803,1.233c0.233,0,0.47-0.043,0.7-0.131
			C38.064,44.518,38.557,43.396,38.172,42.4z"/>
		<path d="M38.023,33.424l-0.342-1.527c-0.488,0.357-1.064,0.609-1.699,0.715l-12.969,2.156c-0.165,0.026-0.33,0.049-0.494,0.049
			c-0.164,0-0.329-0.021-0.494-0.049L9.056,32.611c-0.635-0.104-1.211-0.356-1.699-0.715l-0.342,1.527
			c-0.24,1.068,0.418,2.135,1.482,2.398l13.205,3.254c0.542,0.135,1.108,0.135,1.651,0l13.188-3.254
			C37.604,35.559,38.262,34.492,38.023,33.424z"/>
		<circle cx="22.519" cy="21.308" r="4.197"/>
	</g>
</g>
<g>
</g>
<g>
</g>
<g>
</g>
<g>
</g>
<g>
</g>
<g>
</g>
<g>
</g>
<g>
</g>
<g>
</g>
<g>
</g>
<g>
</g>
<g>
</g>
<g>
</g>
<g>
</g>
<g>
</g>
</svg>
